<svg xmlns="http://www.w3.org/2000/svg" viewBox="0 0 2000 800" version="1.1" id="svg1734">
  <defs id="defs1027">
    <pattern id="Horizontal_line_3-8" data-name="Horizontal line 3" width="50" height="50" patternTransform="matrix(-1.11 0 0 1.11 2588.13 -627.57)" patternUnits="userSpaceOnUse">
      <path class="cls-1" d="M0 0h50v50H0z" id="path2547"/>
      <path class="cls-2" d="M0 0h50v6.27H0z" id="path2549"/>
      <path class="cls-3" d="M0 6.27h50v6.27H0z" id="path2551"/>
      <path class="cls-2" d="M0 12.53h50v6.27H0z" id="path2553"/>
      <path class="cls-3" d="M0 18.8h50v6.27H0z" id="path2555"/>
      <path class="cls-2" d="M0 25.06h50v6.27H0z" id="path2557"/>
      <path class="cls-3" d="M0 31.33h50v6.27H0z" id="path2559"/>
      <path class="cls-2" d="M0 37.59h50v6.27H0z" id="path2561"/>
      <path class="cls-3" d="M0 43.73h50V50H0z" id="path2563"/>
    </pattern>
    <pattern id="Horizontal_line_3-3-6" data-name="Horizontal line 3" width="50" height="50" patternTransform="matrix(-1 .49 .49 1 2463 -422.35)" patternUnits="userSpaceOnUse">
      <path class="cls-1" d="M0 0h50v50H0z" id="path2566"/>
      <path class="cls-2" d="M0 0h50v6.27H0z" id="path2568"/>
      <path class="cls-3" d="M0 6.27h50v6.27H0z" id="path2570"/>
      <path class="cls-2" d="M0 12.53h50v6.27H0z" id="path2572"/>
      <path class="cls-3" d="M0 18.8h50v6.27H0z" id="path2574"/>
      <path class="cls-2" d="M0 25.06h50v6.27H0z" id="path2576"/>
      <path class="cls-3" d="M0 31.33h50v6.27H0z" id="path2578"/>
      <path class="cls-2" d="M0 37.59h50v6.27H0z" id="path2580"/>
      <path class="cls-3" d="M0 43.73h50V50H0z" id="path2582"/>
    </pattern>
    <pattern id="Horizontal_line_3-5-5" data-name="Horizontal line 3" width="50" height="50" patternTransform="matrix(.54 0 0 .54 2082.07 100.97)" patternUnits="userSpaceOnUse">
      <path class="cls-1" d="M0 0h50v50H0z" id="path2585"/>
      <path class="cls-2" d="M0 0h50v6.27H0z" id="path2587"/>
      <path class="cls-3" d="M0 6.27h50v6.27H0z" id="path2589"/>
      <path class="cls-2" d="M0 12.53h50v6.27H0z" id="path2591"/>
      <path class="cls-3" d="M0 18.8h50v6.27H0z" id="path2593"/>
      <path class="cls-2" d="M0 25.06h50v6.27H0z" id="path2595"/>
      <path class="cls-3" d="M0 31.33h50v6.27H0z" id="path2597"/>
      <path class="cls-2" d="M0 37.59h50v6.27H0z" id="path2599"/>
      <path class="cls-3" d="M0 43.73h50V50H0z" id="path2601"/>
    </pattern>
    <pattern id="Horizontal_line_3-9-7" data-name="Horizontal line 3" width="50" height="50" patternTransform="matrix(-1.11 0 0 1.11 2548.78 -634.63)" patternUnits="userSpaceOnUse">
      <path class="cls-1" d="M0 0h50v50H0z" id="path2604"/>
      <path class="cls-2" d="M0 0h50v6.27H0z" id="path2606"/>
      <path class="cls-3" d="M0 6.27h50v6.27H0z" id="path2608"/>
      <path class="cls-2" d="M0 12.53h50v6.27H0z" id="path2610"/>
      <path class="cls-3" d="M0 18.8h50v6.27H0z" id="path2612"/>
      <path class="cls-2" d="M0 25.06h50v6.27H0z" id="path2614"/>
      <path class="cls-3" d="M0 31.33h50v6.27H0z" id="path2616"/>
      <path class="cls-2" d="M0 37.59h50v6.27H0z" id="path2618"/>
      <path class="cls-3" d="M0 43.73h50V50H0z" id="path2620"/>
    </pattern>
    <pattern id="Horizontal_line_3-11-6" data-name="Horizontal line 3" width="50" height="50" patternTransform="matrix(-1 .49 .49 1 2449.91 -428.36)" patternUnits="userSpaceOnUse">
      <path class="cls-1" d="M0 0h50v50H0z" id="path2623"/>
      <path class="cls-2" d="M0 0h50v6.27H0z" id="path2625"/>
      <path class="cls-3" d="M0 6.27h50v6.27H0z" id="path2627"/>
      <path class="cls-2" d="M0 12.53h50v6.27H0z" id="path2629"/>
      <path class="cls-3" d="M0 18.8h50v6.27H0z" id="path2631"/>
      <path class="cls-2" d="M0 25.06h50v6.27H0z" id="path2633"/>
      <path class="cls-3" d="M0 31.33h50v6.27H0z" id="path2635"/>
      <path class="cls-2" d="M0 37.59h50v6.27H0z" id="path2637"/>
      <path class="cls-3" d="M0 43.73h50V50H0z" id="path2639"/>
    </pattern>
    <style id="style1025">
      .cls-1,.cls-17,.cls-87{fill:none}.cls-2{fill:#054752}.cls-3,.cls-66{fill:#fff}.cls-9{fill:#669aa2}.cls-11{fill:#91b7bc}.cls-15{fill:#2e5862}.cls-17,.cls-87{stroke:#054752;stroke-miterlimit:10}.cls-17{stroke-width:4px}.cls-19,.cls-23,.cls-24{fill:#facca3}.cls-25{opacity:.47}.cls-23,.cls-24,.cls-25,.cls-37,.cls-39,.cls-44,.cls-49,.cls-50,.cls-54,.cls-55,.cls-67,.cls-68{mix-blend-mode:multiply}.cls-25{fill:#95abbd}.cls-40{fill:#014753}.cls-23,.cls-49,.cls-55{opacity:.67}.cls-26{fill:#f5b240}.cls-30{fill:#f1890e}.cls-32,.cls-37{fill:#f9cfc4}.cls-35{fill:#e9ca91}.cls-36{fill:url(#Horizontal_line_3-5)}.cls-37{opacity:.69}.cls-42,.cls-44{fill:#947347}.cls-48,.cls-49,.cls-50{fill:#ddb68d}.cls-53,.cls-54,.cls-55{fill:#cd904d}.cls-57{fill:#a9b7c0}.cls-59{fill:#cd8f4d}.cls-61{fill:#ff595a}.cls-64{fill:#022327}.cls-66,.cls-67{opacity:.45}.cls-67{fill:#044752}.cls-68{opacity:.49}.cls-69{fill:#004553}.cls-87{stroke-width:10px}
    </style>
    <style id="style2739">
      .cls-1,.cls-17,.cls-87{fill:none}.cls-2{fill:#054752}.cls-3,.cls-66{fill:#fff}.cls-9{fill:#669aa2}.cls-11{fill:#91b7bc}.cls-15{fill:#2e5862}.cls-17,.cls-87{stroke:#054752;stroke-miterlimit:10}.cls-17{stroke-width:4px}.cls-19,.cls-23,.cls-24{fill:#facca3}.cls-25{opacity:.47}.cls-23,.cls-24,.cls-25,.cls-37,.cls-39,.cls-44,.cls-49,.cls-50,.cls-54,.cls-55,.cls-67,.cls-68{mix-blend-mode:multiply}.cls-25{fill:#95abbd}.cls-40{fill:#014753}.cls-23,.cls-49,.cls-55{opacity:.67}.cls-26{fill:#f5b240}.cls-30{fill:#f1890e}.cls-32,.cls-37{fill:#f9cfc4}.cls-35{fill:#e9ca91}.cls-36{fill:url(#Horizontal_line_3-5)}.cls-37{opacity:.69}.cls-42,.cls-44{fill:#947347}.cls-48,.cls-49,.cls-50{fill:#ddb68d}.cls-53,.cls-54,.cls-55{fill:#cd904d}.cls-57{fill:#a9b7c0}.cls-59{fill:#cd8f4d}.cls-61{fill:#ff595a}.cls-64{fill:#022327}.cls-66,.cls-67{opacity:.45}.cls-67{fill:#044752}.cls-68{opacity:.49}.cls-69{fill:#004553}.cls-87{stroke-width:10px}
    </style>
    <style id="style2739-1">
      .cls-1,.cls-17,.cls-87{fill:none}.cls-2{fill:#054752}.cls-3,.cls-66{fill:#fff}.cls-9{fill:#669aa2}.cls-11{fill:#91b7bc}.cls-15{fill:#2e5862}.cls-17,.cls-87{stroke:#054752;stroke-miterlimit:10}.cls-17{stroke-width:4px}.cls-19,.cls-23,.cls-24{fill:#facca3}.cls-25{opacity:.47}.cls-23,.cls-24,.cls-25,.cls-37,.cls-39,.cls-44,.cls-49,.cls-50,.cls-54,.cls-55,.cls-67,.cls-68{mix-blend-mode:multiply}.cls-25{fill:#95abbd}.cls-40{fill:#014753}.cls-23,.cls-49,.cls-55{opacity:.67}.cls-26{fill:#f5b240}.cls-30{fill:#f1890e}.cls-32,.cls-37{fill:#f9cfc4}.cls-35{fill:#e9ca91}.cls-36{fill:url(#Horizontal_line_3-5)}.cls-37{opacity:.69}.cls-42,.cls-44{fill:#947347}.cls-48,.cls-49,.cls-50{fill:#ddb68d}.cls-53,.cls-54,.cls-55{fill:#cd904d}.cls-57{fill:#a9b7c0}.cls-59{fill:#cd8f4d}.cls-61{fill:#ff595a}.cls-64{fill:#022327}.cls-66,.cls-67{opacity:.45}.cls-67{fill:#044752}.cls-68{opacity:.49}.cls-69{fill:#004553}.cls-87{stroke-width:10px}
    </style>
    <linearGradient id="gradient_sans_nom_12" x1="1001.41" y1="662.71" x2="999.17" y2="-9.1" gradientUnits="userSpaceOnUse">
      <stop offset="0" stop-color="#fff" id="stop1010"/>
      <stop offset=".09" stop-color="#f7fdff" id="stop1012"/>
      <stop offset=".24" stop-color="#e0f8ff" id="stop1014"/>
      <stop offset=".42" stop-color="#bcf0ff" id="stop1016"/>
      <stop offset=".63" stop-color="#89e5ff" id="stop1018"/>
      <stop offset=".86" stop-color="#48d7ff" id="stop1020"/>
      <stop offset=".94" stop-color="#2ed1ff" id="stop1022"/>
    </linearGradient>
    <clipPath id="clip-path">
      <path class="cls-1" d="M0 0h2000v800H0z" id="path1004"/>
    </clipPath>
  </defs>
  <g style="display:inline;isolation:isolate" id="g1732">
    <g id="Calque_1" data-name="Calque 1">
      <path fill="url(#gradient_sans_nom_12)" d="M0 0h2000v480H0z" id="path1029" style="display:inline"/>
      <g clip-path="url(#clip-path)" id="g1697" style="display:inline">
        <path class="cls-9" d="M475.8 402.56s66.09-3.07 120.65-22.28c0 0 53 16.91 83 22.28 30 5.37 89.14-3.07 107.59 6.15 0 0 38.42 23.83 59.94 26.13 21.52 2.3 52.26 3.84 72.24-6.91 19.98-10.75 23.82-3.85 33 0s20.75 13.83 50-6.92 41.49-27.67 55.33-23.06c13.84 4.61 40.73 26.9 116.81 46.88 76.08 19.98 122.19-16.14 122.19-16.14s9.22-10 33.81-10c24.59 0 101.44-3.07 101.44-3.07L1049.09 670 559.56 500.93z" id="path1031" style="display:inline"/>
        <path d="M2136.51 57.51s-81.46 122.19-151.39 129.88c0 0-32.28 7.68-36.12 19.21-3.84 11.53-12.3 26.9-26.9 27.67-14.6.77-43 13.06-71.47 0s-60.71-12.3-84.53 6.14S1635.45 328 1584 350.31c-51.45 22.31-73.77 6.91-73.77 6.91s-347.36 215.95-504.9 290.49l158.31 112.2 847.64-56.1 171.38-49.18z" fill="#a7c6ca" id="path1033"/>
        <path class="cls-11" d="M-8.35 159s61.48-7 104.51 13.79C139.19 193.58 265.23 290.37 314.41 305c49.18 14.63 91.46 13.83 118.35 29.2s63.79 55.33 116.81 81.46c53.02 26.13 378.1 212.87 518 216.71L1049.09 670l-501.82-10-381.94-245.91z" id="path1035"/>
        <path d="M-176.27-50.46s40-18.44 65.32 0c25.32 18.44 144.48 296.64 443.42 478 0 0 199.43 125.65 307 142.56 107.57 16.91 186 76.85 282.8 67.62 96.8-9.23 172.91 16.91 212.87 16.91 39.96 0 414.22-10.76 414.22-10.76l265.9-8.45-952.91 124.49H-175.88z" id="path1037" style="fill:#bdd4d7"/>
        <path class="cls-9" d="M-195.1 680s302 43.8 910.67 34.58l-67.63 25.36-405.76 10-442.65-6.14z" id="path1039"/>
        <path class="cls-11" d="M973.78 703.81s-77.62-13.06-107.59-10c-29.97 3.06-189.05 24.59-189.05 24.59s-33 3.85-95.29 2.31c0 0-35.35 0-61.48 4.61-26.13 4.61-166.76 16.15-198.27 15.38-31.51-.77-509.51-6.92-509.51-6.92v26.13l464.17 30 577.14-23.85 135.25-34.58z" id="path1041"/>
        <path d="M624.89 719.18s-13.07 3.08-8.46 7.69c4.61 4.61 16.91 6.91 11.53 11.53-5.38 4.62-22.29 9.22-60.71 11.52-38.42 2.3-259.75 6.92-259.75 6.92L120 761.45l-417.29-1.54v16.91l532.56-9.22 180.6-5.38 156-6.15s55.33-4.61 61.48-10.76c6.15-6.15.77-13.06-2.31-14.6-3.08-1.54-11.52-3.07-11.52-5.38s5.37-6.15 5.37-6.15z" id="path1043" style="fill:#cddadc"/>
        <path d="M2163.41 510.15S1321.14 651.56 1015.28 690c0 0-171.37 26.13-201.35 43.8-29.98 17.67 139.07 4.6 139.07 4.6s-193.66 21.51-395.77 31.5c-202.11 9.99-733.91 0-733.91 0V783l698.56 27.66 1630.74-5.38z" id="path1045" style="fill:#538c94"/>
        <path class="cls-9" d="M2169.55 797.57l-1108.16-7.69H519.6L296 783.74h-472.65l.77 64.55 501.05 8.45s263.6 11.53 480.31 33.82c216.71 22.29 571 41.5 646.3 125.26 75.3 83.76-102.21 179.06-102.21 179.06h802.31z" id="path1047" style="display:inline"/>
        <path class="cls-11" d="M1510.51 722.19c0-5.17-5.42-9.37-12.11-9.37a15 15 0 00-5 .84 16.2 16.2 0 00-26.71 3.77 10.47 10.47 0 00-1.6-.13 9.51 9.51 0 00-9.78 9.18h53.86a7.72 7.72 0 001.34-4.29z" id="path1049"/>
        <path class="cls-15" d="M401.42 723.75c0-5.14-5.39-9.32-12-9.32a14.81 14.81 0 00-5 .84 16.12 16.12 0 00-26.58 3.73 10.31 10.31 0 00-1.58-.12 9.46 9.46 0 00-9.73 9.13h53.56a7.67 7.67 0 001.33-4.26z" id="path1051"/>
        <path d="M962.57 748.33c0-5.15-5.39-9.32-12-9.32a14.87 14.87 0 00-5 .83 16.12 16.12 0 00-26.57 3.74 10.22 10.22 0 00-1.58-.12 9.47 9.47 0 00-9.73 9.13h53.56a7.64 7.64 0 001.32-4.26zm-272.19-17.64c0-2.7-2.83-4.89-6.31-4.89a7.85 7.85 0 00-2.61.44 8.44 8.44 0 00-13.92 2 5.69 5.69 0 00-.83-.06 5 5 0 00-5.1 4.78h28.07a4.06 4.06 0 00.7-2.27zm163.28-20.75c0-2.69-2.82-4.88-6.3-4.88a7.81 7.81 0 00-2.61.44 8.45 8.45 0 00-13.93 2 5.55 5.55 0 00-.82-.07 5 5 0 00-5.1 4.79H853a4.05 4.05 0 00.66-2.28z" id="path1053" style="fill:#d3e2e4"/>
        <path class="cls-17" d="M277.96 689.41v34.94" id="path1055"/>
        <path class="cls-15" d="M298.51 663.59h-1c-.94-7.07-7.58-12.54-15.63-12.54a15.83 15.83 0 00-14.57 8.84 9.25 9.25 0 10-8.41 16.14 12.34 12.34 0 0016 17.2 16.52 16.52 0 009.24 2.7c6.85 0 12.59-3.86 14.06-9h.36a11.68 11.68 0 100-23.35z" id="path1057"/>
        <path class="cls-17" d="M1411.96 624.76v21.93" id="path1059"/>
        <path class="cls-15" d="M1424.86 608.56h-.64c-.59-4.43-4.76-7.87-9.81-7.87a9.93 9.93 0 00-9.14 5.55 5.8 5.8 0 10-5.27 10.16 7.64 7.64 0 00-1 3.77 7.74 7.74 0 0011 7 10.37 10.37 0 005.79 1.7c4.3 0 7.91-2.42 8.83-5.68h.23a7.33 7.33 0 100-14.66z" id="path1061"/>
        <path class="cls-17" d="M1462.68 615.54v21.93" id="path1063"/>
        <path class="cls-15" d="M1475.58 599.34h-.64c-.59-4.44-4.76-7.87-9.81-7.87a9.93 9.93 0 00-9.14 5.55 5.71 5.71 0 00-3.55-1.22 5.81 5.81 0 00-1.73 11.35 7.64 7.64 0 00-1 3.77 7.74 7.74 0 0011 7 10.37 10.37 0 005.79 1.7c4.31 0 7.91-2.43 8.83-5.68h.23a7.33 7.33 0 100-14.65z" id="path1065"/>
        <path class="cls-17" d="M1508.79 606.32v21.93" id="path1067"/>
        <path class="cls-15" d="M1521.69 590.12h-.64c-.59-4.44-4.76-7.87-9.81-7.87a9.93 9.93 0 00-9.14 5.54 5.81 5.81 0 10-5.28 10.14 7.62 7.62 0 00-1 3.77 7.74 7.74 0 0011 7 10.37 10.37 0 005.79 1.7c4.3 0 7.91-2.43 8.83-5.68h.23a7.33 7.33 0 100-14.65z" id="path1069"/>
        <g transform="matrix(-1 0 0 1 2135.34 0)" style="display:inline" id="g5277">
          <rect style="display:inline;opacity:.4;fill:#fff" id="rect2785" transform="rotate(180 1124.07 438.06)" rx="5.99" height="111.09" width="524.62" y="382.52" x="861.76"/>
          <g id="g1622" transform="matrix(.84925 0 0 .84925 190.18 72.1)">
            <path class="cls-48" d="M1331.14 417.25l11.29.15s1.71 5.1 1.45 14.63c0 .4-9.72 3.16-9.72 3.16z" id="path2951"/>
            <path class="cls-48" d="M1327.92 408.12a6.87 6.87 0 01.5 1.9c0 1-.61 2.15-.59 2.75.22 5-.92 4.52-.49 6.35.32 1.37 2.08 1.44 5 2 2.16.42 7.51-2 8.39-2.36 4-1.84 5.58-9.72 5.58-12.94 0-6.77-5.58-7.57-9.7-6.83a11.19 11.19 0 00-5.38 2.51c-2.38 2.06-3.5 6.12-3.31 6.62z" id="path2953"/>
            <path d="M1332 408.17a3 3 0 00-3.64-.22" id="path2955"/>
            <g class="cls-39" id="g2959">
              <circle class="cls-40" cx="1330.2" cy="409.98" r=".55" id="circle2957"/>
            </g>
            <path class="cls-48" d="M1328.63 408.79a48 48 0 01-2.09 4.43c-.06.16 1.3.38 1.46.38.16 0 .63-4.81.63-4.81z" id="path2961"/>
            <path class="cls-49" d="M1337.53 421.43c-.22.12 1.26 6.25-4.38 7.93l-1.35-8.36z" id="path2963"/>
            <path class="cls-50" d="M1327.88 414.58s1.48.37 1.45.64c-.06.56-1.56.62-1.56.62z" id="path2965"/>
            <path d="M1327.8 413.46s3.51.28 3.51 1.43c0 .07-3.43-.31-3.43-.31zm-.12-8.7s4.65-12 17-5.31c5.64 3.06 3.48 11.7-1.33 19-.07.1-2.91.47-3.65-.75-.91-1.52-1.17-7.05-1.17-7.05l-3.18.67s-.38-3.94-1-4.11c-5.76-1.62-6.67-2.45-6.67-2.45z" id="path2967"/>
            <path class="cls-49" d="M1338.92 409.55s.2 2.29-.9 2.71a2.3 2.3 0 01-1.47 0s.39 3.37 2.23 2.62c1.84-.75.14-5.33.14-5.33z" id="path2969"/>
            <path class="cls-48" d="M1336.67 410.34s1-2.07 1.95-1.22a1.8 1.8 0 01-1.25 3c-1.1 0-1.2-.26-1.2-.26z" id="path2971"/>
            <path class="cls-50" d="M1337.53 410.37a.41.41 0 01.72-.26v.09a.83.83 0 010 .27.76.76 0 01-.24.54.41.41 0 01-.55 0z" id="path2973"/>
            <path class="cls-48" d="M1323.61 442.11c2.23-3.93 9.78-12.79 9.78-12.79l10-1.66s7.2 5.1 9 13.6c.07.32-.63 9.25-.63 9.25h-30.25s2.04-8.3 2.1-8.4z" id="path2975"/>
            <path class="cls-25" d="M1326.23 421.69s-.02-.02 0 0z" id="path2977"/>
            <path d="M1343.44 425.9l-12.53 6.4-7.49 9.92-2 8.46h30.46l.68-10.15s-2.62-7.68-6.73-10.78z" fill="#1d6d75" id="path2979"/>
            <path class="cls-2" d="M1343.73 425.29l-12.87 7.11 14.22-4.74z" id="path2981"/>
            <path class="cls-2" d="M1334.93 453.39l-10.16-9.48 10.16-7.78 7.11 2.03 1.69 6.43z" id="path2993"/>
            <path fill="#005156" d="M1324.77 443.91l10.16 9.48-.68.68-10.16-9.48z" id="path2995"/>
          </g>
          <g id="g1687" transform="matrix(.84925 0 0 .84925 182.18 74.1)">
            <path class="cls-30" d="M1247.3 407.18s1.54 7.26-2.66 10.81c-8.2 6.94-.7 14.4 6 12.69 6.7-1.71 4.6-15.67 4.6-15.67z" id="path2829"/>
            <path d="M1248.9 409.08s.41 6.5-2.6 11.05c-3.65 5.52.24 11.12 3.41 10.8.62-.07 6.33-7.45 6.33-7.45s-5.67-14.43-7.14-14.4z" style="mix-blend-mode:multiply" fill="#f5b240" id="path2831"/>
            <path class="cls-32" d="M1248.93 413.94l6.68-.21a20.3 20.3 0 013.53 12.38c0 .31-7.82 2.53-7.82 2.53z" id="path2833"/>
            <path d="M1245.66 446.07s9-7.53 8.54-7.53c-.46 0-5.53-10.05-5.53-10.05" fill="url(#Horizontal_line_3)" id="path2835" style="fill:url(#Horizontal_line_3-8)"/>
            <path class="cls-32" d="M1258.17 429.88s.64 4.4-3.18 12.07c-3.82 7.67-17.7 17.76-18.63 18-6.55 1.94-6.72-3.33-5.35-6 1.15-2.28 4.19-7.34 12.39-17.41 3.79-4.65 10.3-11.02 14.77-6.66z" id="path2837"/>
            <path fill="url(#Horizontal_line_3-3)" d="M1248.7 430.68l-6.32 6.49 11.41 10.61" id="path2839" style="fill:url(#Horizontal_line_3-3-6)"/>
            <path class="cls-35" d="M1248 446.93s-8.53.76-8.53-4.26c0-2.67.21-.86 7.25-10.88" id="path2845"/>
            <path class="cls-32" d="M1213.26 477.73a14.42 14.42 0 01-1.37 2.36 15.85 15.85 0 01-.59 2.25 16.22 16.22 0 00.43 1.74 1 1 0 01-.38 1l-1.67-3 .42-2.65.36-3.1a1.61 1.61 0 011.79-.13 2.56 2.56 0 011.01 1.53zm31.29-42.86c1.66-1.82 5.82-11.87 5.82-11.87l9.34-.43s5.91 5.82 6.75 10.46a34.62 34.62 0 01.12 9.64h-21.11s-1-7.67-.92-7.8z" id="path2851"/>
            <path class="cls-36" d="M1262.17 425.31a11.13 11.13 0 01-7.7 3.57c-4.79.11-5.87-1.78-5.87-1.78l-1 2-8.18 12.32s-1.72 3.95 4.26 5.56l1.36 18.29 16.6-.16s7.62-21.55 6.11-29.09c-1.51-7.54-5.59-10.71-5.59-10.71" id="path2853" style="fill:url(#Horizontal_line_3-5-5)"/>
            <path class="cls-36" d="M1265.83 448.46s6.45-17.46-2.09-18.46c-7.55-.89-11.55 15.07-11.55 15.07z" id="path2863" style="fill:url(#Horizontal_line_3-5-5)"/>
            <path class="cls-37" d="M1253.53 415.81c.33 1.54-.66 6.73-3 7.56l-1.44-8.48z" id="path2865"/>
            <path class="cls-32" d="M1246.39 407.37c.11 1.68.12 3.05.12 4.18v.85c0 3.75-.2 4.26 2.92 4.78 1.75.3 6.34-2.25 6.71-2.89 1.36-2.29 3.26-5.52 3.26-7.93a7.18 7.18 0 00-7.3-7.47 6.31 6.31 0 00-5.3 3.84c-.71 2.27-.54 2.5-.41 4.64z" id="path2867"/>
            <path d="M1249.87 406.39a1.38 1.38 0 00-.38-.24 2.49 2.49 0 00-.61-.16 5.57 5.57 0 00-2 .14c-.26.06-.36-.33-.11-.39a6.09 6.09 0 012.25-.14 2.28 2.28 0 011.17.5c.19.18-.1.46-.29.29z" style="mix-blend-mode:multiply" fill="#edb6ab" id="path2869"/>
            <g class="cls-39" id="g2873">
              <circle class="cls-40" cx="1248.46" cy="407.55" r=".44" id="circle2871"/>
            </g>
            <path class="cls-32" d="M1246.69 406.94c-.08.11-.76 1.49-1.17 2.07-.29.4 0 .44.44.56l.71.13c.47.04.02-2.76.02-2.76z" id="path2875"/>
            <path class="cls-3" d="M1246.84 412.4a1.13 1.13 0 001-.76l-1-.09z" id="path2877"/>
            <path class="cls-30" d="M1253.61 400.92c-.12 0-.34 1.27-1.46 1.28-3.53 0-6.89-1-6-4.45.53-2 3-2.31 6.92-1.05 5.39 1.7 8.47 4.89 9.07 6.62 1.01 2.8-8.53-2.4-8.53-2.4z" id="path2879"/>
            <path class="cls-30" d="M1250.43 399.57a9.54 9.54 0 001.35 5.69c.72 1.15 4.58 2.08 4.68 3.87 0 .89-1.31 2.27-1.39 3.41-.62 8.14-1.32 17.8 9.7 18.53 6.93.46 10.78-1.94 9.77-9.46-.35-2.55-3.68-5.29-9.14-6.1-1.22-.18-2.22-5.83-2.57-9.74a7.91 7.91 0 00-2.41-4.92s-6.99-3.23-9.99-1.28z" id="path2881"/>
            <path class="cls-37" d="M1256.89 408.3c0 .14 1.32 4.53-1.72 5.6-.32.11-.21-3-.21-3z" id="path2883"/>
            <path class="cls-32" d="M1254.75 408.72s1.2-1.43 1.93-.75c.73.68-.59 3.26-1.42 3-.83-.26-.86-.72-.86-.72z" id="path2885"/>
            <path d="M1255.31 408.84a.49.49 0 01.64.08.48.48 0 01.07.21.6.6 0 01-.08.47.33.33 0 01-.43.1" style="mix-blend-mode:multiply" fill="#f9cfc4" id="path2887"/>
          </g>
          <g id="g1710" transform="matrix(.84925 0 0 .84925 170.18 74.1)">
            <path class="cls-19" d="M1172.43 415.13l11.25.16s1.71 5.08 1.45 14.58c0 .39-9.69 3.15-9.69 3.15z" id="path2787"/>
            <path class="cls-19" d="M1165.13 439.13c2.23-3.94 9.78-12.79 9.78-12.79l10-1.67s7.2 5.1 9 13.61c.07.32-.63 9.25-.63 9.25h-30.25s2.04-8.3 2.1-8.4zm3.51-22.03c.32 1.29 2.07 1.36 5 1.91h.07a4.58 4.58 0 001.28 0 17.26 17.26 0 002.43-.55 44.42 44.42 0 004.57-1.68c4-1.75 5.57-9.21 5.57-12.26 0-6.41-5.56-7.17-9.67-6.47a11.43 11.43 0 00-5.36 2.38c-2.37 1.93-3.49 5.78-3.3 6.25a6.36 6.36 0 01.5 1.8c0 1-.61 2-.59 2.6v.51c.13 4.22-.91 3.84-.5 5.51z" id="path2789"/>
            <path d="M1173.26 406.08a3 3 0 00-3.63-.22" fill="#95abbd" opacity=".47" id="path2791"/>
            <circle cx="1171.49" cy="407.89" r=".55" style="mix-blend-mode:multiply" fill="#014753" id="circle2793"/>
            <path class="cls-19" d="M1169.93 406.71a48.13 48.13 0 01-2.09 4.41c0 .16 1.3.38 1.46.38a4.36 4.36 0 00.88-2 8.4 8.4 0 00-.25-2.79z" id="path2795"/>
            <path class="cls-23" d="M1178.8 419.3c-.23.12 1.26 6.23-4.37 7.91l-1.34-8.29z" id="path2797"/>
            <path class="cls-24" d="M1169.18 412.47s1.47.37 1.44.64c-.06.56-1.55.61-1.55.61z" id="path2799"/>
            <path class="cls-25" d="M1168.64 417.1c.32 1.29 2.07 1.36 5 1.91h1.35a12.34 12.34 0 001.5-.16 2.42 2.42 0 00.93-.39c2-1.34 2.07-5.33 2.07-5.33l-10.3-1.73v.19c.08 4.22-.96 3.84-.55 5.51zm-.89 1.6s-.03-.02 0 0z" id="path2801"/>
            <path class="cls-26" d="M1179.62 404s-9.48.44-10.8-.78c-1.32-1.22-5.41-8.15 1.65-8.15a17.2 17.2 0 0111.58 4.74z" id="path2803"/>
            <path d="M1185 422.92l-12.53 6.4-7.49 9.91-2 8.47h30.46l.68-10.16s-2.62-7.67-6.73-10.77z" id="path2805" style="fill:#2ed1ff"/>
            <path class="cls-3" d="M1185.25 422.31l-12.87 7.11 14.22-4.74z" id="path2807"/>
            <path class="cls-26" d="M1172 400.31s6.11-7.89 15.14-2.51c5.49 3.28 3.06 11.47-3 18.46-.09.1-2.7-.52-3.43-1.74-.91-1.52-.85-6-.85-6l-3.18.66s-.82-3.49-1-4.1c-.68-2.58-3.68-4.77-3.68-4.77z" id="path2809"/>
            <path class="cls-23" d="M1180.18 407.46s.21 2.28-.89 2.7a2.3 2.3 0 01-1.47 0s.39 3.36 2.23 2.62c1.84-.74.13-5.32.13-5.32z" id="path2811"/>
            <path class="cls-19" d="M1177.94 408.25s1-2.07 1.94-1.22a1.79 1.79 0 01-1.25 3c-1.08 0-1.19-.26-1.19-.26z" id="path2813"/>
            <path class="cls-24" d="M1178.8 408.28c0-.38.51-.57.71-.26v.09a.61.61 0 010 .27.76.76 0 01-.23.54.41.41 0 01-.55 0z" id="path2815"/>
            <path d="M1184.16 439.49s.34 4.35-2.46 6.87c-3.31 3-17.28 15.59-18.11 15.84-5.83 1.76-5.41-3.57-4.2-6s3.61-8.76 8.25-13.63c4.14-4.34 11.94-11.89 16.52-3.08z" id="path2817" style="fill:#8f4160;opacity:.3"/>
            <path class="cls-19" d="M1161.69 461.24c-2.31.63-2.93-.78-2.93-.78-2.53-7.47-5.25-17.12-6.81-21.9a8.84 8.84 0 01-.21-1.86l3.16-1.81c15.42 20.91 9.1 25.71 6.79 26.35zm-9.14-32.15a11.3 11.3 0 00-.7-2.32 16.23 16.23 0 00-.06-2.06 12.81 12.81 0 01.72-1.43.86.86 0 00-.12-.93l-2.08 2.3-.17 2.39-.32 2.75a1.63 1.63 0 001.64.36 1.35 1.35 0 001.09-1.06z" id="path2819"/>
            <path class="cls-19" d="M1155.39 429.37c.09.51 0 1.59.06 2 .16 1.61-.25 2.1-.42 5.24-.19 3.41-3 2.86-3.24 1.46-.08-.45-.06-1.09-.17-1.54a67.43 67.43 0 01-1.85-6.53s.35-1.09 1.21-1.24a1.47 1.47 0 011.61.63c.09.26.17.6.61.54.62-.2.81-.56.82-1.24-.09-1.45.31-1.95.7-1.94-.01.47.56 1.83.67 2.62z" id="path2821"/>
            <path class="cls-19" d="M1152.59 429.89a14.1 14.1 0 00-.23-2.43 15.27 15.27 0 00.35-2 13.43 13.43 0 011-1.26.86.86 0 00.06-.94l-2.49 1.84-.64 2.31-.87 2.64a1.44 1.44 0 001.41.77 2.24 2.24 0 001.41-.93zm30.9 8.92s.33 4.36-2.47 6.87c-3.31 3-17.28 15.59-18.11 15.84-5.83 1.76-5.41-3.56-4.2-6s3.61-8.76 8.25-13.63c4.14-4.33 11.94-11.89 16.53-3.08z" id="path2823"/>
            <path fill="#19b4d8" d="M1176.45 450.4l-10.16-9.47 10.16-7.79 7.11 2.03 1.69 6.43z" id="path2825"/>
            <path class="cls-3" d="M1166.29 440.93l10.16 9.47-.68.68-10.16-9.48z" id="path2827"/>
          </g>
          <g id="g1597" transform="matrix(.84925 0 0 .84925 156.18 76.1)">
            <path class="cls-54" d="M1105 424s6.81.07 6.64 9c-.08 4.23-1.28 21.19-1.7 21.88-2.91 4.83-5.78 1.51-6.39-1-.51-2.1-1.47-11.41-2.16-17.76-.39-3.9-1.33-12.55 3.61-12.12z" id="path2999"/>
            <path class="cls-53" d="M1096.29 424.78l5.26-6.23s13.67 2.18 16.69 9.42c4.93 11.83 4.85 30.68 4.85 30.68l-19.35.25z" id="path3003"/>
            <path class="cls-53" d="M1091.1 418.07l6.7-5s5.63 6.77 6.2 8.46c.11.3-7.61 3.78-7.61 3.78z" id="path3005"/>
            <path class="cls-53" d="M1086.91 408.84c0 .5.49 1.19.42 1.49a5.91 5.91 0 00.13 2.42c1.06 4 .53 3.73 1.18 5.12.49 1 1.66 1.65 4 1.56 1.71-.06 5.09-3.79 5.68-4.28 2.74-2.26 2.49-8.9 1.92-11.49-1.21-5.47-5.57-5.05-8.56-3.67-4.46 2.01-4.88 6.93-4.77 8.85z" id="path3007"/>
            <g class="cls-39" id="g3011">
              <path class="cls-53" d="M1089.71 408.26a2.18 2.18 0 00-2.37.34" id="path3009"/>
            </g>
            <ellipse class="cls-40" cx="1088.71" cy="410.83" rx=".43" ry=".46" id="ellipse3013"/>
            <path class="cls-53" d="M1087.4 409.2c-.92 2.42-1.11 3.28-.66 3.54a1.16 1.16 0 001.11 0c.32-.24-.4-3.58-.45-3.54z" id="path3015"/>
            <path class="cls-55" d="M1095.22 418.3c-.12.08 1.17 3.42 0 5.54l-3.19-4.41z" id="path3017"/>
            <path d="M1091.2 416.77c-1.6.42-2.33-2.22-2.17-2.61" style="mix-blend-mode:multiply" stroke="#cd904d" stroke-width="1.02" opacity=".67" stroke-miterlimit="10" fill="none" id="path3019"/>
            <path class="cls-55" d="M1087.92 411a2.18 2.18 0 001.37 1.3c.61.19 1.87 0 2-1" id="path3021"/>
            <path class="cls-57" d="M1089.33 413.82c-.51-.47-1.29-1-1.93-.73v2.73l2.92-.26a4.43 4.43 0 00-.99-1.74z" id="path3023" style="fill:#ccc"/>
            <path class="cls-2" d="M1102 418.62s14.34 2.36 17 9.39a72.55 72.55 0 014 20.29c.81 11.85-.2 10.28-.2 10.28l-19.35.25-7.12-32.93s6.4-3.21 5.67-7.28z" id="path3025"/>
            <path class="cls-54" d="M1110.63 423.76s5.36 4.2-.19 11.18c-2.63 3.31-13.89 16.05-14.64 16.34-5.25 2.07-5.51-2.32-4.47-4.68.88-2 5.77-10 9.08-15.42 2-3.31 6.5-10.75 10.22-7.42z" id="path3027"/>
            <path d="M1110.66 423.76s5.36 4.2-.19 11.18c-2.63 3.31-13.89 16.05-14.64 16.34-5.25 2.07-5.51-2.32-4.46-4.68.87-2 5.77-10 9.07-15.42 2-3.31 6.56-10.75 10.22-7.42z" id="path3037" style="fill:#01353a"/>
            <path class="cls-55" d="M1095.36 409.75s.56 1.81-.19 2.36a1.74 1.74 0 01-1.11.3s.89 2.65 2.15 1.7c1.26-.95-.85-4.36-.85-4.36z" id="path3047"/>
            <path class="cls-57" d="M1083.84 404.32a4.29 4.29 0 01-2.18-4 4.43 4.43 0 012.65-3.71 3.28 3.28 0 011.69-.26c1.3.19 2.23 1.35 3.45 1.85a2.42 2.42 0 012.42-1.13 3.56 3.56 0 012.34 1.47c.17.24.36.51.65.54a1.23 1.23 0 00.63-.22 3.11 3.11 0 013.27.73c1.77 1.51 4 2.43 2.82 7.15-.58 2.26-.81 3.83-1.52 6.05-2.07.74-4.76.47-4.35-2.4-.42.31-2-.41-2.4-.77-.4-.36-.3-5.23-4-5.58-1.98-.17-3.41 1.4-5.47.28z" id="path3049" style="fill:#ccc"/>
            <path class="cls-53" d="M1093.8 410.82s.42-1.87 1.26-1.36c.84.51.83 2.69 0 2.59a3.26 3.26 0 01-1.34-.43z" id="path3051"/>
            <path class="cls-54" d="M1094.46 410.68c-.07-.31.28-.56.49-.34a.1.1 0 010 .06.52.52 0 01.07.21.71.71 0 01-.08.48.32.32 0 01-.42.11z" id="path3053"/>
          </g>
          <g id="g1655" transform="matrix(.84925 0 0 .84925 146.18 74.1)">
            <path d="M1010.33 407.59c-.69.9-1.52 1.69-2.3 2.52-1.24 1.33-5.07 4.25-5 7.77.07 5.79 4 6.84 6.67 7a6.09 6.09 0 002.2.11c1.12-.36 3.58-1.41 4.21-2.39 2.1-3.24-1-9.18 0-12.9.52-2 1.43-6.32-1.24-7.23a1.88 1.88 0 00-2.32.89c-.85 1.39-1.2 2.92-2.22 4.23z" id="path2889"/>
            <path class="cls-42" d="M1011.34 409.57l6.81.12a20.63 20.63 0 013 12.77c0 .32-8.08 2.19-8.08 2.19z" id="path2891"/>
            <path d="M1017.16 410.76c-.19.08-.21 5.67-4.89 6.82l-1-7.65z" style="mix-blend-mode:multiply" opacity=".64" fill="#947347" id="path2893"/>
            <path class="cls-42" d="M1009.3 402.56c.36 1.48-.27 2.16-.31 3.12-.23 4.72-.82 6.45 2.69 7.22 1.76.39 6.55-2 7-2.6 1.49-2.27 3.59-5.47 3.71-7.92a7.31 7.31 0 00-7.05-7.95 6.41 6.41 0 00-5.59 3.63c-.86 2.24-.96 2.41-.45 4.5z" id="path2895"/>
            <path class="cls-44" d="M1012.54 402.24a1.85 1.85 0 00-1-.57 5.79 5.79 0 00-1.44 0 .21.21 0 010-.41 6.44 6.44 0 011.58.07 2.27 2.27 0 011.12.67.2.2 0 01-.29.28z" id="path2897"/>
            <circle cx="1011.17" cy="403.05" r=".45" id="circle2899"/>
            <path class="cls-42" d="M1009.35 402.53a6.82 6.82 0 01-1 2.09c-.39.54.29 1.08.79 1.11h-.13c1.76-1.04.34-3.2.34-3.2z" id="path2901"/>
            <path d="M1009.35 406.21a11.14 11.14 0 011.7 1.22c-.26 1-1.77 1-1.77 1s-1.37-.39-.47-1.14c.34-.29-.42-.91.54-1.08z" style="mix-blend-mode:multiply" fill="#573a22" id="path2903"/>
            <path d="M1009.18 439.69s9-7.53 8.54-7.53c-.46 0-5.52-10.05-5.52-10.05" fill="url(#Horizontal_line_3-9)" id="path2905" style="fill:url(#Horizontal_line_3-9-7)"/>
            <path class="cls-42" d="M1021.69 423.5s.65 4.4-3.18 12.07-17.69 17.77-18.63 18c-6.55 1.94-6.72-3.32-5.35-6 1.15-2.28 4.2-7.34 12.4-17.4 3.79-4.66 10.29-11.03 14.76-6.67z" id="path2907"/>
            <path fill="url(#Horizontal_line_3-11)" d="M1012.22 424.3l-6.32 6.49 11.42 10.61" id="path2909" style="fill:url(#Horizontal_line_3-11-6)"/>
            <path class="cls-35" d="M1030.75 436.54l-5.57 22.19-16.61.16-1.68-22.64z" id="path2911"/>
            <path class="cls-35" d="M1011.49 440.56s-8.54.75-8.54-4.27c0-2.67.22-.85 7.26-10.88" id="path2915"/>
            <path class="cls-3" d="M1025.7 418.94a11.15 11.15 0 01-7.71 3.56c-4.79.11-5.86-1.78-5.86-1.78l-1 2L1003 435s-1.71 3.95 4.27 5.56l1.35 18.3 16.61-.17s7.61-21.55 6.11-29.09c-1.5-7.54-5.59-10.7-5.59-10.7" id="path2923"/>
            <path class="cls-42" d="M1028.16 424.07s5.32 4.19 2.41 12.25c-1.69 4.7-8.16 23.71-8.88 24.36-5.05 4.61-7.5-.05-7.45-3.1 0-2.55.15-13.83 2.91-20.86 2.19-5.59 5.09-14.62 11.01-12.65z" id="path2925"/>
            <path class="cls-3" d="M1029.36 442.08s6.45-17.46-2.09-18.46c-7.55-.89-11.56 15.07-11.56 15.07z" id="path2933"/>
            <path d="M1035.49 425.6c-1.77.55-3.69 0-5.42-.64a43.42 43.42 0 01-5.51-2.52 5.56 5.56 0 01-1.83-1.39 5.67 5.67 0 01-.88-2.56 5.16 5.16 0 01.22-3.58 3.34 3.34 0 012.55-1.49c3.47-.36 7.54 2.44 10.1 4.59 1.08.9 2.82 2.25 3.24 3.61.52 1.71-.88 3.49-2.47 3.98z" id="path2935"/>
            <path d="M1037.54 411.61a4.64 4.64 0 012.53 1.72 4.26 4.26 0 01.39 2.1 4.08 4.08 0 01-.42 2.13 3.2 3.2 0 01-2.78 1.29c-2.87 0-5.25-2.1-7.87-3.27a25.36 25.36 0 01-3.45-1.54 3.65 3.65 0 01-1.89-3.06c.32-6.59 10.95-.35 13.49.63z" id="path2937"/>
            <path d="M1020.74 403.79a4.59 4.59 0 004.21.83 10.42 10.42 0 004.94 6.92 5 5 0 002.3.9 5.55 5.55 0 002.09-.36 6.34 6.34 0 004-3.09 3.79 3.79 0 00-3.1-5.27c-1-.1-2.08.22-3.1 0a5.21 5.21 0 01-2.75-1.61c-1.13-1.13-2.24-3.8-3.16-5.1-3.26-4.65-6.62-3.11-8.21-3-3.65.37.52 7.92 2.78 9.78z" id="path2939"/>
            <path d="M1016.25 398.57c-.27 0-7 1.2-8.85-1.64-1.75-2.67.5-6.75 5.29-6.15 5.83.72 11.42 5.1 12 7.8.95 4.42-8.44-.01-8.44-.01z" id="path2941"/>
            <path d="M1010.74 396.12s2.3 8.74 5.24 8.36c2.94-.38 3.34-5.33 3.34-5.33z" id="path2943"/>
            <path d="M1013 397.47s5.69 4.17 4 9.53c-3.1 9.77-.18 15.48 5 17.4 5.18 1.92 12.42 1.84 12.56 1.19.14-.65-8.31-26.15-8.31-26.15z" id="path2945"/>
            <path class="cls-42" d="M1016.18 404.49s1.18-1.4 1.82-.67c.64.73-.23 3.26-1 2.92a5.68 5.68 0 01-1.24-.74z" id="path2947"/>
            <path class="cls-44" d="M1017 404.56a.41.41 0 01.58.11.51.51 0 01.06.22.65.65 0 01-.1.47.28.28 0 01-.4.08" id="path2949"/>
          </g>
          <g id="g1566" transform="matrix(.84925 0 0 .84925 133.69 74.55)">
            <path class="cls-59" d="M918.27 464.89c-.57 2.75-4.35 2.66-4.35 2.66-7.46-2.65-15.93-6.23-20.67-8-.89-.32-1.08-.75-1.6-1l.54-3.62c26.1.87 26.57 7.6 26.08 9.96z" id="path3055"/>
            <path d="M886.16 453.2a11.25 11.25 0 00-2.28-.88c-.21 0-.94-.93-1.66-1.24a16 16 0 01-.68-1.46.87.87 0 00-.81-.48l.53 3.07 1.77 1.61 2 2a1.62 1.62 0 001.3-1.06 1.41 1.41 0 00-.17-1.56z" style="mix-blend-mode:multiply" fill="#cd8f4d" id="path3057"/>
            <path class="cls-59" d="M888.14 451.14c.46.25 1.27 1 1.63 1.2 1.37.89 1.5 1.51 3.87 3.6 2.58 2.27.39 4.14-.86 3.46-.41-.22-.89-.62-1.32-.83a67.18 67.18 0 01-6.3-2.59 1.89 1.89 0 01-.23-1.73 1.48 1.48 0 011.5-.88c.25.09.58.24.81-.14a1.12 1.12 0 00-.47-1.42c-1.2-.84-1.35-1.46-1.1-1.76.33.29 1.78.68 2.47 1.09z" id="path3059"/>
            <path class="cls-59" d="M886.81 453.67a14.23 14.23 0 00-2.06-1.33c-.2-.08-.74-1.1-1.39-1.54-.09-.07-.18-.87-.37-1.57a.87.87 0 00-.7-.64l-.1 3.12 1.42 1.94 1.55 2.33a1.44 1.44 0 001.48-.64 2.31 2.31 0 00.17-1.67zm47.06-11.32s1 4.27-1.35 7.21c-2.81 3.47-13.57 18.25-17.63 17.81-6.08-.66-3.76-1.9-2.95-4.5.81-2.6 2.2-9.26 6-14.82 3.45-4.98 9.99-13.71 15.93-5.7z" id="path3061"/>
            <path class="cls-53" d="M941.59 444.85s1.9 4.57-.23 8.27c-2.52 4.35-13.12 22.85-13.92 23.41-5.66 3.94-7.08-1.94-6.63-5 .45-3.06.8-10.69 4.08-17.56 2.94-6.11 8.67-16.97 16.7-9.12z" id="path3063"/>
            <path class="cls-53" d="M941.14 453.65l-7.33 22.44-19.07.15-1.53-22.15z" id="path3065"/>
            <path class="cls-53" d="M936.5 484.26c.14.29 3.74 5.33 4.18 9.86.44 4.53-4.23 10.47-4.23 10.47l-18.36.2-2.16-12.71-1-16.26 18.9.26a66 66 0 002.67 8.18zM922 424l10.63.15S934.24 429 934 438c0 .36-9.16 3-9.16 3z" id="path3067" style="display:inline"/>
            <path class="cls-53" d="M915.09 446.71c2.11-3.71 9.24-12.08 9.24-12.08l9.47-1.58s6.8 4.82 8.51 12.86c.06.31-.59 8.75-.59 8.75h-28.6s1.88-7.85 1.97-7.95zm3.91-31.28a6.47 6.47 0 01.48 1.79c0 1-.58 2-.56 2.59.21 4.73-.87 4.26-.47 6 .31 1.28 2 1.35 4.72 1.9 2 .4 7.07-1.85 7.9-2.22 3.82-1.74 5.27-9.17 5.27-12.19 0-6.39-5.27-7.14-9.15-6.44a10.54 10.54 0 00-5.07 2.36c-2.29 1.92-3.35 5.78-3.12 6.21z" id="path3069"/>
            <path d="M922.77 415.47a2.8 2.8 0 00-3.43-.2" id="path3071"/>
            <g class="cls-39" id="g3075">
              <circle class="cls-40" cx="921.1" cy="417.18" r=".52" id="circle3073"/>
            </g>
            <path class="cls-53" d="M919.62 416.07a45.59 45.59 0 01-2 4.17c0 .15 1.23.35 1.38.35.15 0 .62-4.52.62-4.52z" id="path3077"/>
            <path class="cls-55" d="M928 428c-.21.1 1.19 5.88-4.13 7.47l-1.27-7.84z" id="path3079"/>
            <path d="M921.56 410s5.78-7.46 14.31-2.37c5.2 3.09 2.9 10.85-2.86 17.45-.08.09-2.55-.49-3.24-1.65-.87-1.43-.81-5.64-.81-5.64l-3 .63s-.77-3.3-.92-3.87c-.62-2.46-3.48-4.55-3.48-4.55z" id="path3081"/>
            <path class="cls-55" d="M929.31 416.78s.2 2.15-.84 2.55a2.22 2.22 0 01-1.39 0s.37 3.18 2.11 2.47c1.74-.71.12-5.02.12-5.02z" id="path3083"/>
            <path class="cls-53" d="M927.2 417.52s1-1.95 1.83-1.15a1.69 1.69 0 01-1.18 2.86c-1 0-1.13-.24-1.13-.24z" id="path3085"/>
            <path class="cls-54" d="M928 417.55a.38.38 0 01.67-.24.2.2 0 010 .08.57.57 0 010 .26.73.73 0 01-.22.51.4.4 0 01-.52 0zm-9.09 3.97s1.4.35 1.37.6c-.06.53-1.47.58-1.47.58z" id="path3087"/>
            <path d="M914.88 410.18a2.24 2.24 0 012.41-2c.47.07.91.31 1.38.39a1 1 0 001.19-.56c.12-.4-.14-.8-.23-1.2a2.07 2.07 0 011.56-2.23c1-.29 2 .49 3 .44 3-.15 5.62-.87 9.08 1.43l-3.71 3c.22-.1.35.26.32.51a5.82 5.82 0 01-2.15 3.56 4.46 4.46 0 01-2 1.05c-4.94.85-1.26-4.28-5.69-2.78-1.28.73-2.06 1.34-3.19 1a2.64 2.64 0 01-1.97-2.61z" id="path3089"/>
            <path class="cls-61" d="M934.61 433.23l-13.1 4.48-6.64 9-1.66 6.93 2.43 33.5 20.29-4.69-2.14-6.67 8.31-22.61s1.95-8.41-2-13.43-5.47-6.5-5.47-6.5" id="path3091"/>
            <path fill="#ed6a5e" d="M934.94 433.09l-13.86 5.2" id="path3093"/>
            <path class="cls-53" d="M898.27 461.47c29.58 0 24.73 7.49 24.26 10.17" opacity=".67" id="path3095"/>
            <path class="cls-64" d="M891.6 472a2.67 2.67 0 002.36-3.9l-10.27-19.56a2.66 2.66 0 10-4.71 2.48l10.27 19.55a2.66 2.66 0 002.35 1.43z" id="path3097"/>
            <path d="M939.87 443c0 .66 3 6.24-2.39 18.48-5.65 12.75-22.14 18.45-22.14 18.45l-.47-5.54z" opacity=".12" fill="#022327" id="path3099"/>
            <path class="cls-59" d="M923.45 473c-.55 3.14-4.83 3.17-4.83 3.17-8.55-2.74-18.27-6.5-23.7-8.31-1-.34-1.25-.82-1.84-1.07l.48-4.12c29.58.07 30.36 7.67 29.89 10.33zm-36.79-12.07a12.31 12.31 0 00-2.6-.92c-.24 0-1.1-1-1.93-1.35a15.11 15.11 0 01-.82-1.62 1 1 0 00-.94-.52l.71 3.45 2.07 1.77 2.3 2.16a1.84 1.84 0 001.44-1.25 1.58 1.58 0 00-.23-1.72z" id="path3101"/>
            <path class="cls-59" d="M888.84 458.52c.52.27 1.46 1.06 1.88 1.31 1.59.95 1.76 1.65 4.52 3.93 3 2.49.59 4.68-.86 4-.47-.24-1-.68-1.53-.89-1.32-.58-5.2-1.62-7.22-2.72a2.14 2.14 0 01-.32-1.95 1.69 1.69 0 011.67-1.05c.29.1.66.25.91-.19a1.28 1.28 0 00-.59-1.6c-1.38-.89-1.57-1.6-1.3-1.95.41.28 2 .68 2.84 1.11z" id="path3103"/>
            <path class="cls-59" d="M887.41 461.43A15.16 15.16 0 00885 460c-.23-.09-.88-1.22-1.63-1.71a15.79 15.79 0 01-.48-1.76 1 1 0 00-.81-.7v3.53l1.68 2.15 1.83 2.59a1.65 1.65 0 001.66-.77 2.58 2.58 0 00.16-1.9zM938 444.87s1.68 4.68-.64 8.29c-2.74 4.25-13 22.22-17.67 22.22-6.93 0-4.47-1.68-3.88-4.71.59-3.03 1.34-10.7 5-17.44 3.25-6.02 9.54-16.66 17.19-8.36z" id="path3105"/>
            <path class="cls-61" d="M920 454.23l12.94 7s12-16.31 5.46-19.63c-6.54-3.32-14.8-3.6-18.4 12.63z" id="path3107"/>
            <path class="cls-3" d="M933.34 459.84l-13.09-6.46c-1.36-.68-2.57 1.37-1.2 2.05l13.09 6.46c1.37.67 2.57-1.37 1.2-2.05z" id="path3109"/>
            <path class="cls-64" d="M936 435s-20.3 7-22 16.58c-1 5.32-.44 6.1-.44 6.1a32.88 32.88 0 0125.12-19.72" id="path3111"/>
            <path class="cls-3" d="M933.59 430.61l-7.44 4.94-1.45 4.94 11.93-5.52zm-11.17 4.6l-1 2.6 1.23 3.51 1.84-3.1z" id="path3113"/>
          </g>
          <g id="g1534" style="display:inline">
            <path class="cls-61" d="M860.82 485.21c0 2.73 0 5.31.08 7.71.08 4.55.18 8.44.33 11.43a35 35 0 00.59 6.08c2.35 7.95 14.09 7.95 14.09 7.95h461.39a10.66 10.66 0 001.49-.1l45.59-6.53a10.83 10.83 0 009.21-10.77V383.8a10.79 10.79 0 00-9.83-10.84 7.5 7.5 0 00-.82 0l-69.43-.32-30.72-.15-57-.27-173.93-.83-57-.27c-62.26-.29-107.91-.5-112.77-.5-11 0-16.41 5.73-18.76 9.5a10.81 10.81 0 00-1.63 5.53v2.7c5.73-.08 70.84-.6 70.84.41h-1.35l-.33 57.73c-26.86 5.02-43.73 37.02-70.04 38.72zm95.49-37.16l.33-58.47h139a5.57 5.57 0 001.64.25h125.86a5.68 5.68 0 001.65-.25h83.51a5.63 5.63 0 001.65.25h53.67a5.45 5.45 0 001.63-.25H1378v58.47zm-69.43-53.85a11.46 11.46 0 00-11.35 11.53v10.74A11.46 11.46 0 00886.88 428z" id="path3115"/>
            <rect class="cls-66" x="1199.09" y="465.24" width="61.32" height="13.5" rx="6.75" transform="rotate(180 1229.75 471.99)" id="rect3117"/>
            <rect class="cls-66" x="1025.21" y="465.24" width="61.32" height="13.5" rx="6.75" transform="rotate(180 1055.87 471.99)" id="rect3119"/>
            <path class="cls-66" d="M1091.67 381.4v2.29a5.63 5.63 0 004 5.36 5.56 5.56 0 001.64.24h125.86a5.58 5.58 0 005.61-5.6v-2.29a5.62 5.62 0 00-5.61-5.6h-125.9a5.62 5.62 0 00-5.6 5.6zm212.66 0v2.29a5.58 5.58 0 005.61 5.6h53.67a5.45 5.45 0 001.63-.24 5.64 5.64 0 004-5.36v-2.29a5.62 5.62 0 00-5.6-5.6h-53.67a5.62 5.62 0 00-5.64 5.6z" id="path3121"/>
            <path class="cls-61" transform="rotate(180 1254.31 369.51)" d="M1225.83 366.07h56.97v6.89h-56.97z" id="path3123"/>
            <path class="cls-61" d="M1313.17 373h71.62v-7a8.45 8.45 0 00-8.38-8.52h-48.59z" id="path3125"/>
            <path class="cls-2" d="M1322.24 368.88h53v-3.45a4.19 4.19 0 00-4.18-4.19h-41.5z" id="path3127"/>
            <path class="cls-61" transform="rotate(180 1023.41 369.51)" d="M994.93 366.07h56.97v6.89h-56.97z" id="path3129"/>
            <path class="cls-3" d="M1365.24 389.05h-57a5.63 5.63 0 001.65.24h53.67a5.45 5.45 0 001.68-.24zm-140.46 0h-129.15a5.56 5.56 0 001.64.24h125.86a5.68 5.68 0 001.65-.24z" id="path3131"/>
            <path class="cls-67" d="M1021.08 516v-20.59a19.12 19.12 0 00-19.08-19.12h-17.46a19.12 19.12 0 00-19.12 19.12V516z" id="path3133"/>
            <path class="cls-2" d="M967.74 504.67A25 25 0 10994.91 482a24.83 24.83 0 00-27.17 22.67z" id="path3135"/>
            <path class="cls-2" d="M989.52 480.67a26.71 26.71 0 015.52-.08l.62.08-3 26.24zm6.31 52.33a27.54 27.54 0 01-5.53.08l-.62-.08 3-26.24z" id="path3137"/>
            <path class="cls-2" d="M966.53 510a26.74 26.74 0 01-.08-5.52c0-.21 0-.42.07-.63l26.25 3zm52.28-6.34a26 26 0 01.08 5.52c0 .21 0 .42-.07.63l-26.24-3z" id="path3139"/>
            <path class="cls-2" d="M1008.93 486.1a26.62 26.62 0 014 3.85l.39.49-20.72 16.44zm-32.51 41.43a25.69 25.69 0 01-4-3.85l-.39-.49 20.67-16.44z" id="path3141"/>
            <path class="cls-2" d="M972 490.56a27.65 27.65 0 013.85-4l.5-.39 16.43 20.68zm41.39 32.51a26.62 26.62 0 01-3.85 4l-.5.39-16.43-20.68z" id="path3143"/>
            <path class="cls-2" d="M1000 481.52a26.75 26.75 0 015.12 2.09l.54.32-13 23zm-14.66 50.58a25.44 25.44 0 01-5.11-2.09 6 6 0 01-.55-.31l13-23z" id="path3145"/>
            <path class="cls-2" d="M967.38 499.48a26.67 26.67 0 012.09-5.11l.31-.55 23 13zm50.62 14.67a26.67 26.67 0 01-2.09 5.11l-.31.55-23-13z" id="path3147"/>
            <path class="cls-2" d="M1015.19 493.17a26.33 26.33 0 012.35 5l.19.6-25.15 8.08z" id="path3149"/>
            <path class="cls-2" d="M970.15 520.46a26.33 26.33 0 01-2.35-5l-.19-.6 25.15-8.08z" id="path3151"/>
            <path class="cls-2" d="M979 484.29a27 27 0 015-2.35l.6-.19 8.08 25.15zm27.32 45.05a27.23 27.23 0 01-5 2.34l-.6.19-8.08-25.15z" id="path3153"/>
            <g class="cls-68" id="g3157">
              <path class="cls-69" d="M970.62 518.57a24.94 24.94 0 1042.44-26l-13.46 8.23-15.54 9.54z" id="path3155"/>
            </g>
            <path class="cls-3" d="M978.17 505.6A14.55 14.55 0 10994 492.42a14.55 14.55 0 00-15.83 13.18z" id="path3159"/>
            <path class="cls-2" d="M992.25 511.53a4.66 4.66 0 01-4.21-5 4.64 4.64 0 114.63 5.06zm-2.84-4.91a3.27 3.27 0 103.55-3h-.3a3.27 3.27 0 00-3.25 3z" id="path3161"/>
            <path class="cls-2" transform="rotate(180 1183.9 500.46)" d="M1179.21 498.51h9.39v3.91h-9.39z" id="path3163"/>
            <path class="cls-2" transform="rotate(180 1067.83 500.46)" d="M1063.13 498.51h9.39v3.91h-9.39z" id="path3165"/>
            <path class="cls-2" transform="rotate(180 890.2 500.46)" d="M885.5 498.51h9.39v3.91h-9.39z" id="path3167"/>
            <path class="cls-2" d="M870.11 490.67s-.15 7.42-.93 8.53c-1.47 2.11-4.77 2.88-8.58 2.7v-11.23z" id="path3169"/>
            <path class="cls-3" d="M875.53 404.93v10.57a11.37 11.37 0 0011.35 11.34v-33.25a11.37 11.37 0 00-11.35 11.34z" id="path3171"/>
            <path class="cls-61" d="M875.53 405.73v10.74A11.46 11.46 0 00886.88 428v-33.8a11.46 11.46 0 00-11.35 11.53z" id="path3173"/>
            <g style="display:inline" id="g644">
              <path id="path3175" d="M1393.59 466.51a42.26 42.26 0 00-17.51-18.51l-67.22.28c-.17 3.32-.26 6.72-.24 10.15a42.43 42.43 0 0120.46 59.29l.77.63h8.1l46.43-6.64a13.36 13.36 0 003.36-1.07c1.11-.67 3.17-2.2 3.17-2.2s2.69-3.19 2.68-6.06z" class="cls-2" style="display:inline"/>
              <path id="path3177" d="M1255.57 518.39c-7.54-12.59-10.21-29-10.55-44.95a200.57 200.57 0 011.17-25.07l30.56-.05.15 9.37a42.3 42.3 0 0131.72.78v2.67c.42 20.36 4.68 41.54 18 54.45a45.8 45.8 0 002.43 2.17l-.35.63z" class="cls-3" style="display:inline"/>
              <path id="path3179" fill="#36bcee" d="M1331.56 482.53a42.3 42.3 0 00-22.94-24.06v2.67c.42 20.36 4.68 41.54 18 54.45a45.8 45.8 0 002.43 2.17 42.34 42.34 0 002.51-35.23z" style="display:inline"/>
            </g>
            <rect class="cls-2" x="1386.73" y="446.72" width="8.02" height="42.88" rx="1.36" transform="rotate(180 1390.73 468.15)" id="rect3181"/>
            <path class="cls-67" d="M1321.42 516v-20.59a19.12 19.12 0 00-19.12-19.12h-17.42a19.12 19.12 0 00-19.12 19.12V516z" id="path3183"/>
            <path class="cls-2" d="M1268.12 504.24a25 25 0 1027.17-22.68 24.83 24.83 0 00-27.17 22.68z" id="path3185"/>
            <path class="cls-2" d="M1289.89 480.24a26.82 26.82 0 015.53-.08l.62.08-3 26.24z" id="path3187"/>
            <path class="cls-2" d="M1296.21 532.53a26.83 26.83 0 01-5.53.07c-.21 0-.41-.05-.62-.07l3-26.24z" id="path3189"/>
            <path class="cls-2" d="M1266.91 509.54a26.06 26.06 0 01-.08-5.52c0-.21.05-.42.07-.63l26.25 3z" id="path3191"/>
            <path class="cls-2" d="M1319.19 503.23a26 26 0 01.08 5.52c0 .21 0 .42-.07.63l-26.25-3z" id="path3193"/>
            <path class="cls-2" d="M1309.3 485.67a26.21 26.21 0 014 3.85l.39.49-20.69 16.44zm-32.5 41.43a26.21 26.21 0 01-4-3.85l-.39-.49 20.68-16.44z" id="path3195"/>
            <path class="cls-2" d="M1272.33 490.13a26.63 26.63 0 013.85-4c.16-.14.33-.26.5-.39l16.43 20.68z" id="path3197"/>
            <path class="cls-2" d="M1313.77 522.64a27.12 27.12 0 01-3.85 4l-.5.39-16.42-20.72z" id="path3199"/>
            <path class="cls-2" d="M1300.38 481.09a27 27 0 015.12 2.09l.54.32-13 23zm-14.66 50.58a25.52 25.52 0 01-5.12-2.09l-.54-.31 13-23z" id="path3201"/>
            <path class="cls-2" d="M1267.76 499.05a26.67 26.67 0 012.09-5.11l.31-.55 23 13zm50.58 14.67a26.93 26.93 0 01-2.09 5.11l-.31.55-23-13z" id="path3203"/>
            <path class="cls-2" d="M1315.57 492.74a26.33 26.33 0 012.35 5l.19.6-25.11 8.08zM1270.53 520a26.33 26.33 0 01-2.35-5l-.19-.6 25.15-8.08z" id="path3205"/>
            <path class="cls-2" d="M1279.41 483.86a27 27 0 015-2.35l.6-.19 8.07 25.15z" id="path3207"/>
            <path class="cls-2" d="M1306.69 528.9a26.33 26.33 0 01-5 2.35l-.6.19-8.09-25.15z" id="path3209"/>
            <g class="cls-68" id="g3213" style="display:inline">
              <path class="cls-69" d="M1271 518.14a24.94 24.94 0 1042.45-26l-13.45 8.23-15.54 9.54z" id="path3211"/>
            </g>
            <path class="cls-3" d="M1278.55 505.17a14.55 14.55 0 1015.8-13.18 14.55 14.55 0 00-15.8 13.18z" id="path3215"/>
            <path class="cls-2" d="M1292.63 511.1a4.65 4.65 0 01-4.21-5 4.64 4.64 0 114.63 5.06zm-2.85-4.92a3.27 3.27 0 103.56-3h-.3a3.29 3.29 0 00-3.26 3z" id="path3217"/>
            <path class="cls-3" d="M1363.82 389.62h-57a5.57 5.57 0 001.64.25h53.67a5.57 5.57 0 001.69-.25zm-140.47 0h-129.14a5.45 5.45 0 001.63.25h125.86a5.58 5.58 0 001.65-.25z" id="path3219"/>
          </g>
        </g>
        <path style="display:inline;stroke:#fff;stroke-linecap:round;stroke-linejoin:round;fill:none" id="path1675" d="M753 379.19h-59m58.63 66.31h-59m40.87-33.81h-59"/>
        <g id="g1750">
          <path id="path1677" d="M108.64 829.67c0-144 116.75-260.78 260.78-260.78 144.03 0 260.78 116.75 260.78 260.78" class="cls-87"/>
          <path id="path1679" d="M624.65 829.67c0-144 116.76-260.78 260.78-260.78 144.02 0 260.79 116.75 260.79 260.78m5.45 0c0-144 116.75-260.78 260.78-260.78 144.03 0 260.78 116.75 260.78 260.78" class="cls-87"/>
          <path id="path1681" d="M1668.74 829.67c0-144 118.8-260.78 260.78-260.78 144 0 260.78 116.75 260.78 260.78" class="cls-87"/>
          <path id="path1683" d="M-136.29 492.96H2183" style="stroke-width:20px;stroke:#054752;stroke-miterlimit:10;fill:none"/>
          <path id="path1685" d="M65.83 541.15v-48.29m93.14 48.29v-48.29m93.14 48.29v-48.29m93.13 48.29v-48.29m93.14 48.29v-48.29m93.13 48.29v-48.29m93.14 48.29v-48.29m93.14 48.29v-48.29m93.13 48.29v-48.29m93.14 48.29v-48.29m93.14 48.29v-48.29m93.13 48.29v-48.29m93.14 48.29v-48.29m93.14 48.29v-48.29m93.13 48.29v-48.29m93.14 48.29v-48.29m93.14 48.29v-48.29m93.13 48.29v-48.29m93.14 48.29v-48.29m93.14 48.29v-48.29m93.13 48.29v-48.29" style="stroke-width:7px;stroke:#054752;stroke-miterlimit:10;fill:none"/>
          <path id="path1687" d="M-136.69 524.1H2183v42.01H-136.69z" class="cls-2"/>
          <path id="path1689" d="M82.48 556.21v247.3l-29.33 20.61v45.98h110.97v-48.36l-33.29-22.19V556.21zm521.56 0v247.3l-29.33 20.61v45.98h110.97v-48.36l-33.29-22.19V556.21zm521.57 0v247.3l-29.33 20.61v45.98h110.97v-48.36l-33.29-22.19V556.21zm521.56 0v247.3l-29.33 20.61v45.98h110.97v-48.36l-33.29-22.19V556.21z" class="cls-2"/>
          <path id="path1691" d="M86.82 668.06c-2.44 0-4.84.11-7.22.32-6.66-50.08-53.71-88.88-110.77-88.88-46.6 0-86.52 25.88-103.22 62.65a65.27 65.27 0 00-40.11-13.71A65.55 65.55 0 00-240 694a65.58 65.58 0 0046 62.59 87 87 0 00-11.06 42.58 87.39 87.39 0 0087.4 87.39 87 87 0 0036.79-8.1c17.74 12 40.56 19.17 65.46 19.17 48.57 0 89.23-27.39 99.66-64.13h2.6a82.74 82.74 0 000-165.47zm286.31 129.16q-2.11 0-4.2.18c-3.87-29.13-31.24-51.7-64.44-51.7-27.11 0-50.33 15.06-60.05 36.44a38.14 38.14 0 10-34.69 66.58 50.85 50.85 0 0065.81 70.89 68.17 68.17 0 0038.08 11.16c28.26 0 51.91-15.94 58-37.31h1.51a48.13 48.13 0 100-96.26z" style="fill:#32707a"/>
          <path id="path1693" d="M1947.08 571.16v91.83" class="cls-17"/>
          <path id="path1695" d="M2001.1 503.31c-.9 0-1.79.05-2.67.12-2.47-18.57-19.92-33-41.08-33-17.28 0-32.09 9.6-38.28 23.23a24.31 24.31 0 10-22.07 42.48 32.43 32.43 0 0042 45.2 43.44 43.44 0 0024.27 7.11c18 0 33.09-10.16 37-23.79h1a30.69 30.69 0 100-61.37z" class="cls-15"/>
        </g>
      </g>
    </g>
  </g>
</svg>